<?xml version="1.0" encoding="utf-8"?>
<!-- Generator: Adobe Illustrator 16.0.0, SVG Export Plug-In . SVG Version: 6.00 Build 0)  -->
<!DOCTYPE svg PUBLIC "-//W3C//DTD SVG 1.1//EN" "http://www.w3.org/Graphics/SVG/1.1/DTD/svg11.dtd">
<svg version="1.1" id="Layer_1" xmlns="http://www.w3.org/2000/svg" xmlns:xlink="http://www.w3.org/1999/xlink" x="0px" y="0px"
	 width="200px" height="200px" viewBox="0 0 200 200" enable-background="new 0 0 200 200" xml:space="preserve">
<path id="rect2245" fill="#FF5722" d="M38.932,11.005h123.111c19.926,0,36.076,14.838,36.076,33.145v113.106
	c0,18.305-16.15,33.144-36.076,33.144H38.932c-19.925,0-36.078-14.839-36.078-33.144V44.149
	C2.854,25.843,19.007,11.005,38.932,11.005z"/>
<path id="path18" d="M71.797,41.373l37.075,0.086c7.747-0.058,13.53,1.153,17.354,3.627c4.667,3.035,6.999,8.257,6.999,15.663
	c0,12.197-5.785,19.106-17.355,20.728v0.17c5.102,1.243,7.681,5.374,7.739,12.393c0,3.594-0.139,8.198-0.414,13.812
	c0,3.767,0.816,7.022,2.448,9.775h-20.316c-0.949-1.006-1.422-3.056-1.422-6.146c0.388-5.17,0.584-9.408,0.584-12.718
	c0-6.687-3.289-10.029-9.86-10.029H81.484l-5.733,27.043h-19.79L71.797,41.373z M103.137,56.88H88.57l-3.798,17.954h15.763
	c8.811,0,13.245-3.4,13.301-10.2C113.835,59.464,110.271,56.88,103.137,56.88z"/>
<path id="path20" d="M128.332,117.542L143,92.688l3.954,25.024h25.022L149.4,133.561l3.614,24.854l-19.548-14.995l-26.274,15.592
	l12.291-26.461l-14.326-15.08L128.332,117.542z"/>
<path id="path3659" fill="#FFFFFF" d="M145.431,131.779l14.993-10.44h-16.587l-2.873-18.109l-10.527,17.939h-16.758l10.186,10.698
	l-8.421,17.954l18.28-10.784l14.411,11.038L145.431,131.779z"/>
</svg>
