<?xml version="1.0" encoding="utf-8"?>
<!-- Generator: Adobe Illustrator 16.0.0, SVG Export Plug-In . SVG Version: 6.00 Build 0)  -->
<!DOCTYPE svg PUBLIC "-//W3C//DTD SVG 1.1//EN" "http://www.w3.org/Graphics/SVG/1.1/DTD/svg11.dtd">
<svg version="1.1" id="Layer_1" xmlns="http://www.w3.org/2000/svg" xmlns:xlink="http://www.w3.org/1999/xlink" x="0px" y="0px"
	 width="595.281px" height="56px" viewBox="0 0 595.281 130.891" enable-background="new 0 0 595.281 130.891"
	 xml:space="preserve">
<g>
	<g>
		<path fill="#231F20" d="M47.848,27.984H21.007v24.347h25.895v14.371H21.007v48.232H9.383V13.612h38.465V27.984z"/>
		<path fill="#231F20" d="M101.479,90.324H68.504l-8.583,24.609H47.4L85.515,7.248l36.768,107.687h-12.721L101.479,90.324z
			 M96.741,75.956L85.316,41.502L73.342,75.956H96.741z"/>
		<path fill="#231F20" d="M129.219,114.934L145.433,6l26.443,78.749L199.265,6l14.568,108.935H201.91l-7.435-61.16l-22.8,65.817
			l-22.151-65.883l-8.28,61.226H129.219L129.219,114.934z"/>
		<path fill="#231F20" d="M272.652,27.984h-30.881v24.347h29.985v14.371h-29.985v33.859h30.881v14.373h-42.505V13.612h42.505V27.984
			z"/>
	</g>
	<g>
		<g>
			<path fill="#EB1A5B" d="M583.966,30.767c-0.525-5.077-2.504-9.635-5.73-13.183c-3.459-3.803-8.279-6.158-14.293-6.996
				c-2.363-0.334-4.662-0.503-6.834-0.503l-0.869,0.007c-0.518,0.014-1.031,0.037-1.547,0.077l-3.582,0.515
				c-1.518,0.322-2.984,0.776-4.402,1.356c-3.328,1.361-6.35,3.523-8.967,6.42c-2.119,2.34-3.943,5.197-5.547,8.711l-6.557,10.396
				c-3.475-7.393-7.525-13.562-12.084-18.369c-4.227-4.44-9.205-7.617-14.799-9.445c-9.578-3.135-19.602-3.046-28.291-0.483
				c-1.576,0.468-3.012,0.995-4.387,1.552c-2.402-1.062-5.107-1.799-8.131-2.185c-2.543-0.315-5.018-0.477-7.355-0.477l-0.898,0.008
				c-3.777,0.067-7.4,0.89-10.766,2.438c-3.475,1.598-6.604,4.037-9.301,7.245c-1.275,1.519-2.443,3.236-3.51,5.183
				c-0.336-0.713-0.717-1.417-1.154-2.108c-2.92-4.608-9.109-10.108-21.988-10.108c-1.01,0-2.062,0.032-3.285,0.104
				c-7.115,0.496-13.299,3.055-18.195,7.392c-1.666-1.333-3.451-2.586-5.41-3.699c-4.41-2.497-9.645-4.325-15.545-5.429
				c-5.705-1.068-12.174-1.271-19.357-0.587c-8.066,0.774-15.447,2.665-21.945,5.623c-6.463,2.951-12.131,6.679-16.848,11.078
				c-4.829,4.512-8.736,9.708-11.604,15.451c-2.778,5.554-4.665,11.389-5.614,17.351c-0.957,6.021-0.938,12.175,0.061,18.288
				c1.003,6.16,2.994,12.062,5.864,17.435c3.564,6.846,8.272,12.354,13.997,16.373c5.377,3.771,11.227,6.408,17.379,7.838
				c6.062,1.411,12.307,1.705,18.521,0.859c2.539-0.349,5.014-0.853,7.424-1.5c2.188,1.981,4.539,3.586,7.041,4.797
				c4.738,2.287,9.646,3.451,14.59,3.451l0.701-0.01c4.834-0.107,9.518-1.158,13.924-3.115c3.916-1.738,7.373-3.836,10.289-6.232
				c0.49-0.404,0.928-0.832,1.383-1.252c3.361,1.445,6.977,2.539,10.875,3.17l0.229,0.033c3.697,0.529,7.289,0.545,10.605,0.041
				c2.998-0.451,5.855-1.247,8.521-2.387c0.877,1.058,1.789,2.024,2.736,2.895c2.385,2.191,4.955,3.873,7.641,5.005
				c2.375,0.999,4.754,1.655,7.082,1.95c0.836,0.118,1.674,0.176,2.494,0.176c4.383,0,8.471-1.678,11.506-4.711
				c2.412-2.408,4.17-5.555,5.229-9.369c0.648-2.35,1.125-4.963,1.453-8.002c0.201-1.898,0.391-3.977,0.568-6.109
				c0.734,2.447,1.543,4.608,2.426,6.498c2.498,5.308,5.533,8.989,9.277,11.255c3.523,2.131,7.104,3.208,10.641,3.208
				c5.465,0,10.346-2.848,13.066-7.639c0.43-0.762,0.811-1.563,1.139-2.416c4.281,3.803,8.602,4.879,11.672,5.06
				c0.367,0.025,0.732,0.033,1.102,0.033c3.438,0,8.562-0.979,13.449-5.648c0.277-0.262,0.549-0.535,0.812-0.813
				c0.268,0.639,0.543,1.251,0.832,1.851c1.666,3.439,3.52,6.243,5.662,8.558c2.439,2.652,5.162,4.658,8.076,5.961
				c2.402,1.074,4.781,1.777,7.09,2.094c0.85,0.13,1.709,0.193,2.547,0.193c4.486,0,8.623-1.812,11.656-5.117
				c2.104-2.295,3.686-5.225,4.693-8.719c0.691-2.39,1.166-5.057,1.457-8.141c0.221-2.342,0.436-4.9,0.668-7.824
				c0.209-3.117,0.469-6.384,0.775-9.807c0.273-2.996,0.752-6.049,1.449-9.229c0.773-3.729,1.73-7.455,2.854-11.072
				c1.256-4.06,2.443-7.941,3.559-11.648c1.195-3.979,2.184-7.768,2.932-11.271C584.074,38.572,584.353,34.545,583.966,30.767z
				 M573.048,40.971c-0.682,3.172-1.57,6.595-2.676,10.266c-1.105,3.673-2.283,7.525-3.527,11.552
				c-1.25,4.028-2.299,8.11-3.158,12.245c-0.785,3.568-1.334,7.112-1.652,10.643c-0.326,3.528-0.592,6.899-0.807,10.107
				c-0.211,2.709-0.428,5.201-0.643,7.486c-0.211,2.278-0.551,4.225-1.016,5.828c-0.465,1.604-1.086,2.838-1.871,3.69
				c-0.789,0.854-1.82,1.176-3.104,0.962c-1.141-0.144-2.389-0.518-3.742-1.124c-1.355-0.606-2.674-1.604-3.957-2.996
				c-1.281-1.387-2.479-3.227-3.584-5.508c-1.105-2.279-2.018-5.223-2.727-8.82c-0.711-3.602-1.176-7.879-1.389-12.834
				c-0.219-4.956-0.039-10.819,0.531-17.594l-14.65,28.234c-0.717,2.709-1.871,4.831-3.477,6.365
				c-1.605,1.528-3.299,2.243-5.082,2.135c-1.781-0.104-3.527-1.14-5.238-3.101c-1.715-1.961-3.029-5.149-3.959-9.571
				c-0.996-4.636-2.637-9.533-4.918-14.705c-2.283-5.17-4.959-10.215-8.023-15.134c-0.57,4.062-0.998,8.13-1.281,12.192
				c-0.287,3.21-0.41,6.401-0.375,9.572c0.033,3.175,0.123,6.188,0.266,9.037c0.072,2.428,0.123,4.652,0.164,6.686
				c0.033,2.029-0.041,3.795-0.215,5.291c-0.182,1.496-0.502,2.66-0.963,3.479c-0.467,0.815-1.158,1.229-2.084,1.229
				c-1.217,0-2.586-0.462-4.117-1.39c-1.535-0.93-2.996-2.868-4.387-5.828c-1.393-2.963-2.602-7.183-3.637-12.676
				c-1.033-5.488-1.658-12.836-1.873-22.033c-0.143-6.131-0.092-11.337,0.16-15.613c0.25-4.278,0.66-7.877,1.23-10.803
				c-2.711-2.281-5.24-3.921-7.594-4.92c-0.332-0.137-0.637-0.28-0.928-0.424c-0.008,1.987-0.283,4.178-0.834,6.574
				c-0.75,3.246-1.713,6.74-2.893,10.481c-1.176,3.746-2.441,7.666-3.795,11.766c-1.355,4.101-2.498,8.253-3.422,12.46
				c-0.789,3.637-1.355,7.256-1.713,10.855c-0.357,3.604-0.678,7.043-0.961,10.318c-0.213,2.785-0.449,5.331-0.697,7.648
				c-0.25,2.316-0.604,4.314-1.068,5.991c-0.463,1.675-1.121,2.942-1.98,3.796c-0.854,0.854-1.994,1.176-3.418,0.962
				c-1.215-0.144-2.498-0.497-3.852-1.068c-1.355-0.574-2.693-1.464-4.012-2.677c-1.32-1.209-2.566-2.815-3.744-4.811
				c-1.176-1.999-2.191-4.566-3.047-7.699c-1.215,1.494-2.564,2.853-4.064,4.064c-1.498,1.211-3.141,2.226-4.922,3.047
				c-1.781,0.813-3.74,1.391-5.881,1.713c-2.141,0.318-4.457,0.301-6.951-0.057c-4.85-0.783-9.021-2.372-12.516-4.759
				c-3.492-2.392-6.381-5.456-8.664-9.196c-2.279-3.746-3.99-8.113-5.131-13.103c-1.143-4.992-1.783-10.482-1.926-16.474
				c-0.082-2.744-0.061-5.333,0.041-7.8c-0.268,0.692-0.559,1.372-0.898,2.026c-1.354,2.635-3.029,4.635-5.021,5.99
				c-2,1.354-4.104,2.175-6.312,2.458c-2.209,0.285-4.402,0.16-6.574-0.373c-2.178-0.537-4.084-1.372-5.727-2.516
				c-1.641-1.141-2.904-2.476-3.795-4.01c-0.893-1.531-1.123-3.155-0.695-4.865c0.643-2.781,0.443-5.116-0.588-7.005
				c-1.037-1.892-2.586-3.317-4.654-4.279c-2.064-0.962-4.51-1.461-7.324-1.496c-2.818-0.039-5.65,0.409-8.504,1.336
				c-2.852,0.927-5.598,2.351-8.234,4.278c-2.639,1.925-4.83,4.366-6.576,7.325c-1.748,2.962-2.889,6.437-3.424,10.429
				c-0.535,3.994-0.125,8.52,1.229,13.582c0.715,2.711,1.783,4.919,3.211,6.632c1.424,1.714,3.064,2.996,4.92,3.849
				c1.854,0.855,3.812,1.338,5.883,1.441c2.066,0.108,4.045-0.084,5.934-0.586c1.891-0.5,3.621-1.246,5.189-2.246
				c1.568-0.997,2.814-2.211,3.744-3.637c-1.43-1.854-2.783-3.012-4.066-3.476c-1.283-0.465-2.496-0.643-3.635-0.536
				c-1.143,0.108-2.141,0.286-2.994,0.536c-0.855,0.252-1.498,0.159-1.926-0.268c-1-0.996-1.145-2.281-0.426-3.851
				c0.709-1.567,2.047-3.05,4.008-4.438c1.961-1.393,4.439-2.479,7.436-3.263c2.992-0.783,6.271-0.837,9.838-0.161
				c3.564,0.681,7.289,2.281,11.18,4.812c3.883,2.532,7.717,6.401,11.496,11.604c2.85,3.923,5.256,6.758,7.219,8.503
				c1.961,1.747,3.6,2.927,4.92,3.534c1.318,0.603,2.387,0.923,3.209,0.96c0.816,0.035,1.512,0.338,2.084,0.91
				c0.928,0.854,0.963,2.137,0.107,3.85c-0.857,1.711-2.301,3.405-4.334,5.079c-2.029,1.677-4.486,3.156-7.377,4.439
				c-2.889,1.283-5.922,1.961-9.09,2.028c-3.174,0.073-6.348-0.655-9.521-2.189c-3.172-1.531-6.043-4.296-8.607-8.288
				c-3.994,1.925-8.344,3.207-13.049,3.853c-4.705,0.641-9.357,0.422-13.957-0.646s-8.93-3.032-12.996-5.883
				c-4.062-2.852-7.416-6.81-10.053-11.872c-2.281-4.278-3.816-8.82-4.598-13.636c-0.787-4.813-0.803-9.572-0.055-14.278
				c0.748-4.705,2.229-9.269,4.438-13.688s5.188-8.377,8.931-11.872c3.744-3.494,8.236-6.433,13.477-8.824
				c5.24-2.388,11.209-3.904,17.914-4.545c5.99-0.568,11.268-0.427,15.83,0.429c4.562,0.854,8.449,2.191,11.658,4.009
				c3.209,1.819,5.773,3.997,7.697,6.525c1.926,2.531,3.279,5.206,4.064,8.021c0.301,1.078,0.496,2.158,0.641,3.24
				c0.686-3.417,1.623-6.449,2.838-9.069c3.098-6.702,8.25-10.3,15.451-10.803c7.133-0.428,11.711,0.962,13.744,4.173
				c2.033,3.208,1.48,8.664-1.656,16.361c-2.779,6.704-4.758,12.729-5.934,18.076c-1.18,5.349-1.658,9.984-1.447,13.906
				c0.213,3.918,1.07,7.129,2.566,9.627c1.5,2.49,3.564,4.203,6.203,5.131c1.713,0.644,3.422,0.693,5.133,0.158
				c1.713-0.533,3.244-1.53,4.602-2.996c1.352-1.455,2.512-3.346,3.473-5.666c0.967-2.315,1.555-5.007,1.77-8.075
				c0-0.568,0-1.157,0-1.763c0-0.604,0.033-1.229,0.107-1.875v-0.105c0.068-1.211,0.139-2.46,0.211-3.739
				c0.068-1.285,0.18-2.638,0.322-4.068c0.641-6.772,1.424-12.547,2.354-17.326c0.924-4.773,1.994-8.751,3.207-11.924
				c1.215-3.171,2.566-5.651,4.062-7.433c1.5-1.782,3.137-3.083,4.924-3.904c1.777-0.819,3.688-1.246,5.721-1.283
				c2.033-0.035,4.188,0.089,6.473,0.373c3.35,0.429,5.793,1.443,7.326,3.047c0.545,0.575,0.98,1.227,1.367,1.915
				c0.418-0.468,0.9-0.93,1.518-1.376c1.818-1.32,4.297-2.441,7.436-3.373c3.135-0.926,6.486-1.389,10.055-1.389
				c3.561,0,7.145,0.59,10.748,1.767c3.598,1.174,6.791,3.228,9.568,6.149c3.85,4.062,7.291,9.446,10.324,16.147
				c3.031,6.704,5.33,14.547,6.898,23.531l21.711-34.438c1.139-2.639,2.387-4.708,3.738-6.203c1.357-1.5,2.82-2.568,4.387-3.208
				c1.566-0.645,3.244-0.979,5.029-1.018c1.779-0.037,3.668,0.092,5.666,0.373c3.066,0.428,5.312,1.429,6.738,2.996
				c1.426,1.57,2.266,3.566,2.516,5.989C573.937,34.999,573.724,37.797,573.048,40.971z"/>
		</g>
	</g>
</g>
</svg>
