<?xml version="1.0" encoding="utf-8"?>
<!-- Generator: Adobe Illustrator 16.0.0, SVG Export Plug-In . SVG Version: 6.00 Build 0)  -->
<!DOCTYPE svg PUBLIC "-//W3C//DTD SVG 1.1//EN" "http://www.w3.org/Graphics/SVG/1.1/DTD/svg11.dtd">
<svg version="1.1" id="Layer_1" xmlns="http://www.w3.org/2000/svg" xmlns:xlink="http://www.w3.org/1999/xlink" x="0px" y="0px"
	 width="200px" height="200px" viewBox="0 0 200 200" enable-background="new 0 0 200 200" xml:space="preserve">
<g>
	<path fill="#ED145B" stroke="#ED145B" stroke-width="0.25" stroke-miterlimit="10" d="M194.359,36.226c0-16.5-13.5-30-30-30H35.53
		c-16.5,0-30,13.5-30,30v64.415h188.83V36.226z"/>
	<path fill="#ED145B" stroke="#ED145B" stroke-width="0.25" stroke-miterlimit="10" d="M194.86,101.141H5.03V36.226
		c0-16.817,13.683-30.5,30.5-30.5H164.36c16.817,0,30.5,13.683,30.5,30.5V101.141z M6.03,100.141H193.86V36.226
		c0-16.267-13.233-29.5-29.5-29.5H35.53c-16.267,0-29.5,13.233-29.5,29.5V100.141z"/>
</g>
<path fill="#FFFFFF" stroke="#ED145B" stroke-width="0.25" stroke-miterlimit="10" d="M35.53,195.056h128.83c16.5,0,30-13.5,30-30
	v-64.415H5.53v64.415C5.53,181.556,19.03,195.056,35.53,195.056z"/>
<path fill="#FFFFFF" stroke="#ED145B" stroke-width="0.25" stroke-miterlimit="10" d="M164.36,195.556H35.53
	c-16.817,0-30.5-13.683-30.5-30.5v-64.915H194.86v64.915C194.86,181.873,181.178,195.556,164.36,195.556z"/>
<g>
	<path fill="#ED145B" d="M176.337,125.946c-0.269-2.592-1.278-4.918-2.925-6.728c-1.766-1.942-4.226-3.144-7.297-3.571
		c-1.205-0.171-2.379-0.258-3.487-0.258l-0.443,0.004c-0.265,0.007-0.527,0.02-0.789,0.039l-1.83,0.264
		c-0.771,0.164-1.522,0.396-2.245,0.692c-1.7,0.693-3.241,1.798-4.576,3.276c-1.083,1.194-2.013,2.652-2.833,4.446l-3.346,5.306
		c-1.772-3.772-3.844-6.922-6.169-9.375c-2.155-2.268-4.696-3.89-7.551-4.822c-4.892-1.6-10.006-1.555-14.441-0.246
		c-0.805,0.238-1.537,0.508-2.238,0.792c-1.227-0.542-2.609-0.918-4.151-1.115c-1.297-0.161-2.561-0.243-3.754-0.243l-0.459,0.004
		c-1.928,0.035-3.776,0.454-5.494,1.244c-1.774,0.816-3.372,2.061-4.748,3.698c-0.651,0.775-1.246,1.651-1.792,2.645
		c-0.17-0.363-0.366-0.723-0.589-1.075c-1.491-2.354-4.648-5.16-11.224-5.16c-0.515,0-1.053,0.017-1.675,0.055
		c-3.633,0.252-6.79,1.559-9.288,3.771c-0.852-0.681-1.761-1.32-2.762-1.888c-2.252-1.275-4.923-2.208-7.935-2.771
		c-2.912-0.546-6.214-0.647-9.88-0.3c-4.117,0.396-7.885,1.36-11.202,2.871c-3.298,1.506-6.19,3.408-8.598,5.654
		c-2.465,2.303-4.458,4.955-5.924,7.887c-1.417,2.834-2.381,5.813-2.866,8.855c-0.488,3.073-0.478,6.215,0.031,9.335
		c0.513,3.146,1.529,6.157,2.992,8.898c1.82,3.494,4.223,6.306,7.145,8.357c2.745,1.925,5.729,3.271,8.87,4.001
		c3.095,0.72,6.281,0.869,9.453,0.437c1.296-0.177,2.561-0.433,3.79-0.765c1.117,1.013,2.317,1.83,3.593,2.447
		c2.419,1.169,4.926,1.763,7.448,1.763l0.358-0.005c2.468-0.055,4.859-0.591,7.107-1.589c1.999-0.888,3.764-1.958,5.25-3.184
		c0.251-0.207,0.474-0.424,0.707-0.638c1.715,0.738,3.559,1.296,5.551,1.617l0.115,0.019c1.889,0.271,3.722,0.277,5.414,0.021
		c1.532-0.229,2.99-0.637,4.352-1.219c0.447,0.54,0.913,1.034,1.396,1.478c1.216,1.118,2.53,1.978,3.9,2.556
		c1.211,0.509,2.426,0.845,3.614,0.994c0.427,0.06,0.854,0.09,1.271,0.09c2.237,0,4.325-0.855,5.873-2.404
		c1.232-1.229,2.129-2.834,2.67-4.781c0.331-1.201,0.573-2.535,0.741-4.085c0.104-0.97,0.2-2.029,0.29-3.119
		c0.376,1.248,0.786,2.352,1.239,3.316c1.274,2.71,2.822,4.589,4.735,5.746c1.798,1.085,3.625,1.637,5.431,1.637
		c2.79,0,5.281-1.453,6.669-3.897c0.22-0.391,0.413-0.8,0.58-1.233c2.187,1.939,4.392,2.488,5.959,2.581
		c0.188,0.012,0.375,0.018,0.562,0.018c1.755,0,4.369-0.5,6.866-2.883c0.141-0.135,0.278-0.274,0.413-0.417
		c0.136,0.326,0.277,0.64,0.425,0.945c0.851,1.755,1.797,3.185,2.89,4.368c1.247,1.354,2.636,2.377,4.123,3.041
		c1.225,0.548,2.441,0.907,3.618,1.068c0.435,0.066,0.872,0.1,1.302,0.1c2.289,0,4.4-0.926,5.948-2.61
		c1.074-1.173,1.88-2.668,2.396-4.451c0.352-1.221,0.595-2.581,0.742-4.156c0.112-1.194,0.224-2.5,0.341-3.994
		c0.106-1.589,0.239-3.257,0.397-5.005c0.14-1.529,0.383-3.087,0.739-4.71c0.394-1.904,0.884-3.806,1.456-5.651
		c0.642-2.072,1.247-4.054,1.816-5.946c0.611-2.029,1.114-3.963,1.496-5.752C176.393,129.931,176.535,127.875,176.337,125.946z
		 M170.764,131.154c-0.347,1.62-0.801,3.366-1.365,5.239c-0.564,1.876-1.165,3.842-1.801,5.897c-0.638,2.056-1.174,4.14-1.61,6.249
		c-0.401,1.821-0.683,3.631-0.847,5.432c-0.164,1.803-0.3,3.521-0.409,5.159c-0.109,1.384-0.218,2.656-0.328,3.821
		c-0.108,1.165-0.282,2.156-0.519,2.976c-0.236,0.818-0.555,1.447-0.955,1.883c-0.401,0.438-0.928,0.602-1.583,0.491
		c-0.582-0.073-1.22-0.264-1.91-0.572c-0.692-0.31-1.365-0.818-2.021-1.529c-0.655-0.709-1.265-1.646-1.828-2.811
		c-0.565-1.166-1.029-2.667-1.393-4.504c-0.364-1.838-0.601-4.021-0.71-6.551c-0.108-2.529-0.019-5.522,0.273-8.979l-7.479,14.411
		c-0.363,1.383-0.955,2.465-1.773,3.248c-0.819,0.782-1.685,1.146-2.593,1.092c-0.911-0.055-1.802-0.582-2.675-1.583
		c-0.874-1.001-1.548-2.63-2.021-4.886c-0.511-2.365-1.347-4.867-2.511-7.507c-1.165-2.639-2.53-5.213-4.095-7.724
		c-0.292,2.074-0.51,4.148-0.655,6.224c-0.146,1.638-0.21,3.267-0.19,4.886c0.018,1.619,0.063,3.157,0.137,4.611
		c0.035,1.239,0.062,2.376,0.081,3.413c0.018,1.037-0.019,1.938-0.108,2.702c-0.092,0.764-0.256,1.355-0.491,1.773
		c-0.237,0.418-0.593,0.628-1.065,0.628c-0.619,0-1.319-0.237-2.102-0.71c-0.783-0.473-1.528-1.464-2.238-2.974
		c-0.709-1.511-1.329-3.667-1.856-6.47s-0.846-6.551-0.955-11.246c-0.073-3.13-0.046-5.787,0.082-7.97
		c0.127-2.184,0.336-4.021,0.628-5.514c-1.383-1.164-2.675-2.001-3.876-2.512c-0.169-0.07-0.326-0.143-0.473-0.217
		c-0.004,1.015-0.145,2.133-0.428,3.356c-0.382,1.656-0.873,3.439-1.474,5.35c-0.601,1.911-1.247,3.912-1.938,6.005
		c-0.692,2.093-1.275,4.213-1.747,6.359c-0.401,1.856-0.692,3.704-0.874,5.542s-0.346,3.594-0.491,5.268
		c-0.108,1.419-0.228,2.72-0.354,3.903c-0.128,1.182-0.31,2.201-0.546,3.057c-0.237,0.855-0.573,1.502-1.01,1.938
		c-0.438,0.438-1.02,0.602-1.747,0.491c-0.619-0.073-1.274-0.254-1.966-0.546c-0.691-0.291-1.374-0.745-2.047-1.364
		c-0.674-0.619-1.311-1.438-1.911-2.457s-1.119-2.328-1.556-3.93c-0.62,0.764-1.311,1.455-2.074,2.074
		c-0.764,0.618-1.602,1.137-2.511,1.557c-0.91,0.417-1.911,0.709-3.002,0.872c-1.092,0.165-2.275,0.155-3.548-0.026
		c-2.476-0.4-4.605-1.211-6.387-2.43c-1.784-1.22-3.258-2.784-4.422-4.694c-1.165-1.911-2.039-4.14-2.621-6.688
		c-0.583-2.548-0.91-5.351-0.982-8.407c-0.042-1.4-0.031-2.723,0.021-3.981c-0.136,0.354-0.285,0.7-0.457,1.034
		c-0.691,1.346-1.547,2.365-2.565,3.057c-1.02,0.691-2.093,1.111-3.221,1.256c-1.129,0.146-2.248,0.082-3.357-0.191
		c-1.111-0.273-2.084-0.7-2.921-1.283c-0.837-0.581-1.483-1.264-1.938-2.047c-0.456-0.782-0.573-1.61-0.355-2.483
		c0.328-1.42,0.227-2.611-0.3-3.576c-0.528-0.964-1.319-1.692-2.375-2.184c-1.056-0.491-2.302-0.746-3.739-0.764
		c-1.438-0.019-2.885,0.21-4.34,0.683c-1.456,0.474-2.857,1.2-4.204,2.183c-1.347,0.983-2.466,2.229-3.357,3.74
		c-0.892,1.511-1.474,3.284-1.747,5.322c-0.273,2.039-0.064,4.349,0.627,6.933c0.364,1.383,0.91,2.512,1.638,3.385
		c0.727,0.873,1.564,1.528,2.511,1.965c0.946,0.438,1.947,0.683,3.002,0.737c1.055,0.054,2.065-0.045,3.03-0.3
		c0.963-0.255,1.847-0.637,2.647-1.146c0.8-0.509,1.437-1.128,1.911-1.856c-0.729-0.946-1.42-1.537-2.075-1.774
		c-0.655-0.236-1.274-0.327-1.856-0.273c-0.583,0.055-1.092,0.146-1.529,0.273c-0.436,0.128-0.764,0.082-0.982-0.136
		c-0.51-0.509-0.583-1.165-0.219-1.966c0.363-0.8,1.046-1.556,2.047-2.265c1-0.711,2.266-1.265,3.794-1.666
		c1.528-0.399,3.202-0.427,5.022-0.082c1.819,0.347,3.721,1.165,5.705,2.457c1.983,1.292,3.939,3.267,5.868,5.923
		c1.456,2.002,2.684,3.448,3.685,4.34c1,0.892,1.837,1.492,2.511,1.803c0.673,0.308,1.219,0.472,1.638,0.491
		c0.418,0.018,0.773,0.171,1.064,0.463c0.473,0.437,0.492,1.092,0.055,1.966c-0.437,0.873-1.174,1.736-2.211,2.593
		c-1.037,0.854-2.292,1.61-3.767,2.266c-1.474,0.654-3.021,1-4.64,1.037c-1.62,0.035-3.24-0.337-4.859-1.119
		c-1.619-0.782-3.084-2.193-4.394-4.23c-2.039,0.982-4.258,1.638-6.66,1.965s-4.776,0.218-7.124-0.327
		c-2.348-0.547-4.558-1.548-6.633-3.002c-2.074-1.457-3.786-3.477-5.131-6.061c-1.165-2.184-1.947-4.503-2.348-6.96
		s-0.409-4.886-0.027-7.288c0.382-2.401,1.137-4.73,2.266-6.987c1.127-2.256,2.647-4.276,4.558-6.06s4.204-3.283,6.878-4.504
		c2.675-1.219,5.723-1.992,9.144-2.32c3.057-0.29,5.75-0.218,8.079,0.219c2.329,0.437,4.312,1.119,5.951,2.047
		c1.638,0.928,2.948,2.039,3.93,3.331s1.674,2.657,2.074,4.093c0.153,0.551,0.253,1.102,0.327,1.654
		c0.349-1.743,0.828-3.291,1.447-4.629c1.583-3.421,4.212-5.258,7.889-5.514c3.639-0.218,5.978,0.491,7.015,2.129
		s0.755,4.423-0.846,8.353c-1.419,3.421-2.429,6.496-3.03,9.226s-0.846,5.096-0.737,7.098c0.109,2.001,0.546,3.639,1.31,4.912
		c0.765,1.274,1.819,2.148,3.167,2.621c0.874,0.326,1.747,0.354,2.621,0.082c0.873-0.273,1.655-0.783,2.347-1.529
		c0.691-0.745,1.283-1.71,1.774-2.893c0.491-1.184,0.792-2.557,0.9-4.122c0-0.291,0-0.591,0-0.901c0-0.308,0.019-0.627,0.055-0.955
		v-0.055c0.036-0.618,0.072-1.255,0.109-1.91c0.036-0.654,0.091-1.346,0.164-2.074c0.327-3.458,0.728-6.405,1.201-8.844
		c0.473-2.438,1.019-4.467,1.637-6.087c0.619-1.618,1.311-2.884,2.075-3.794c0.764-0.909,1.601-1.573,2.511-1.992
		c0.909-0.418,1.884-0.637,2.921-0.655c1.037-0.018,2.138,0.046,3.303,0.19c1.71,0.219,2.956,0.736,3.739,1.557
		c0.279,0.293,0.503,0.625,0.698,0.976c0.215-0.238,0.46-0.474,0.775-0.702c0.928-0.674,2.192-1.247,3.794-1.721
		c1.602-0.473,3.311-0.709,5.132-0.709c1.819,0,3.647,0.301,5.486,0.9c1.837,0.601,3.466,1.647,4.886,3.14
		c1.965,2.073,3.721,4.821,5.268,8.242s2.72,7.425,3.521,12.011l11.081-17.578c0.582-1.347,1.22-2.402,1.911-3.167
		s1.438-1.311,2.238-1.638c0.8-0.327,1.655-0.499,2.565-0.519c0.909-0.019,1.874,0.047,2.894,0.191
		c1.564,0.218,2.711,0.728,3.438,1.528c0.729,0.801,1.155,1.82,1.283,3.058S171.108,129.534,170.764,131.154z"/>
</g>
<g>
	<path fill="#FFFFFF" d="M55.933,49.659H42.358v12.312h13.096v7.269H42.358v24.395h-5.879V42.391h19.454V49.659z"/>
	<path fill="#FFFFFF" d="M83.058,81.188H66.379l-4.34,12.446h-6.333l19.278-54.464L93.58,93.635h-6.435L83.058,81.188z
		 M80.661,73.92l-5.779-17.424L68.827,73.92H80.661z"/>
	<path fill="#FFFFFF" d="M97.087,93.635l8.2-55.095l13.373,39.828l13.853-39.828l7.368,55.095h-6.03l-3.76-30.933L118.56,95.991
		l-11.203-33.322l-4.188,30.966H97.087z"/>
	<path fill="#FFFFFF" d="M169.63,49.659h-15.619v12.312h15.165v7.269h-15.165v17.126h15.619v7.269h-21.498V42.391h21.498V49.659z"/>
</g>
</svg>
